<svg width="754" height="320" viewBox="0 0 754 320" fill="none" xmlns="http://www.w3.org/2000/svg">
<path d="M558.963 190.784C507.582 190.784 465.966 148.689 465.966 96.8075C465.966 44.9256 507.582 2.83122 558.963 2.83122C610.344 2.83122 651.96 44.9256 651.96 96.8075C651.96 148.689 610.344 190.784 558.963 190.784Z" fill="#FBB33D" stroke="#121212" stroke-width="3.91568"/>
<path d="M631.804 52.708H560.224H488.643C494.492 112.926 560.224 126.789 560.224 52.708C560.224 126.789 625.955 112.926 631.804 52.708Z" fill="#121212"/>
<path fill-rule="evenodd" clip-rule="evenodd" d="M632.576 52.001H487.871L487.946 52.778C490.891 83.0971 508.951 101.998 526.557 103.775C535.385 104.667 544.018 101.228 550.416 92.8629C555.251 86.5412 558.792 77.4329 560.224 65.2932C561.656 77.4329 565.197 86.5412 570.032 92.8629C576.429 101.228 585.062 104.667 593.89 103.775C611.496 101.998 629.556 83.0971 632.501 52.778L632.576 52.001ZM559.521 53.4166C559.418 71.4653 555.356 84.0891 549.308 91.9971C543.198 99.9856 535.033 103.208 526.697 102.367C510.12 100.693 492.553 82.8526 489.419 53.4166H559.521ZM560.926 53.4166C561.029 71.4653 565.092 84.0891 571.14 91.9971C577.249 99.9856 585.415 103.208 593.751 102.367C610.327 100.693 627.895 82.8526 631.028 53.4166H560.926Z" fill="#121212"/>
<path d="M637.957 119.078C569.52 140.047 534.578 131.163 477.728 82.3682C528.68 180.753 563.838 187.824 637.957 119.078Z" fill="#121212"/>
<path fill-rule="evenodd" clip-rule="evenodd" d="M635.219 120.643C617.659 136.734 602.34 148.428 588.5 155.548C574.078 162.967 561.311 165.395 549.307 162.705C537.294 160.013 525.927 152.17 514.363 138.81C503.306 126.036 492.107 108.262 480.022 85.2472C507.223 108.258 529.575 122.021 553.34 127.573C577.2 133.147 602.394 130.424 635.219 120.643ZM553.655 126.194C529.423 120.532 506.578 106.2 478.181 81.8271L477.107 82.695C489.855 107.31 501.636 126.256 513.309 139.742C524.984 153.23 536.593 161.306 549.004 164.087C561.422 166.87 574.527 164.324 589.135 156.809C603.734 149.299 619.884 136.801 638.431 119.599L637.754 118.4C603.588 128.868 577.88 131.853 553.655 126.194Z" fill="#121212"/>
<path d="M490.696 76.8364C476.07 79.5766 471.94 84.4616 470.411 97.9795C475.247 87.9317 479.728 83.3258 490.696 76.8364Z" fill="#121212"/>
<path fill-rule="evenodd" clip-rule="evenodd" d="M489.931 77.1283C484.807 80.2005 481.13 82.8814 478.154 85.9753C475.2 89.0466 472.943 92.5192 470.648 97.1731C471.433 90.8715 472.849 86.5505 475.744 83.4641C478.654 80.362 483.078 78.4854 489.931 77.1283ZM475.541 83.2693C472.456 86.5573 471.037 91.197 470.272 97.9638L470.537 98.0418C472.951 93.0262 475.273 89.3769 478.355 86.1726C481.438 82.9673 485.288 80.201 490.767 76.959L490.67 76.6976C483.35 78.0691 478.624 79.9821 475.541 83.2693Z" fill="#121212"/>
<path d="M596.581 131.922C586.89 200.027 515.904 198.682 526.867 121.633C548.761 137.907 563.957 140.317 596.581 131.922Z" fill="#F9748B"/>
<path fill-rule="evenodd" clip-rule="evenodd" d="M526.762 121.38L526.729 121.613C523.985 140.895 526.366 155.459 531.649 165.39C536.934 175.325 545.122 180.621 553.968 181.352C571.661 182.815 591.869 166.033 596.72 131.943L596.75 131.733L596.546 131.786C580.24 135.982 568.307 137.473 557.721 135.89C547.138 134.307 537.887 129.65 526.951 121.52L526.762 121.38ZM596.413 132.112C591.52 165.986 571.437 182.513 553.99 181.07C545.249 180.348 537.141 175.117 531.896 165.257C526.671 155.435 524.288 141.014 526.973 121.887C537.848 129.946 547.097 134.586 557.681 136.169C568.278 137.754 580.199 136.271 596.413 132.112Z" fill="#FF0523"/>
<path fill-rule="evenodd" clip-rule="evenodd" d="M555.885 167.274L560.287 136.471L558.054 136.143L553.653 166.946L555.885 167.274Z" fill="#78000E"/>
<path d="M623.194 125.255C571.19 152.104 542.64 149.794 501.646 104.198C542.559 134.131 570.628 138.725 623.194 125.255Z" fill="white"/>
<path fill-rule="evenodd" clip-rule="evenodd" d="M622.019 125.7C596.56 138.723 576.762 144.626 558.313 141.753C539.876 138.883 522.755 127.245 502.661 105.111C522.649 119.594 539.631 127.988 558.027 131.142C576.468 134.304 596.316 132.196 622.019 125.7ZM558.073 130.863C539.401 127.662 522.175 119.043 501.729 104.083L501.543 104.293C522.047 127.099 539.46 139.105 558.27 142.033C577.077 144.961 597.249 138.809 623.257 125.381L623.159 125.118C596.885 131.85 576.748 134.064 558.073 130.863Z" fill="white"/>
<path d="M440.514 304.338C391.856 304.338 352.411 264.894 352.411 216.236C352.411 167.578 391.856 128.133 440.514 128.133C489.172 128.133 528.617 167.578 528.617 216.236C528.617 264.894 489.172 304.338 440.514 304.338Z" fill="#FBB33D" stroke="#121212" stroke-width="3.91568"/>
<path d="M441.839 204.042C441.839 224.976 453.647 241.946 468.213 241.946C482.779 241.946 494.586 224.976 494.586 204.042C494.586 183.109 482.779 166.139 468.213 166.139C453.647 166.139 441.839 183.109 441.839 204.042Z" fill="white"/>
<path d="M440.645 219.701C472.817 200.517 480.472 267.494 509.695 261.784C466.655 270.881 436.408 277.01 440.645 219.701Z" fill="#552983"/>
<path fill-rule="evenodd" clip-rule="evenodd" d="M451.649 216.104C448.275 216.12 444.614 217.18 440.577 219.588L440.518 219.623L440.512 219.692C439.453 234.027 440.547 244.413 443.471 251.782C446.396 259.159 451.153 263.51 457.396 265.77C463.631 268.028 471.338 268.197 480.167 267.238C488.997 266.279 498.964 264.188 509.722 261.914L509.67 261.655C502.424 263.07 496.508 259.986 491.194 254.825C486.713 250.473 482.676 244.661 478.646 238.857C477.893 237.773 477.14 236.688 476.384 235.614C471.592 228.801 466.691 222.382 460.966 218.874C458.1 217.117 455.024 216.088 451.649 216.104ZM506.838 262.252C497.158 264.289 488.175 266.101 480.138 266.974C471.323 267.932 463.664 267.758 457.486 265.521C451.317 263.287 446.616 258.993 443.717 251.685C440.82 244.381 439.722 234.063 440.772 219.78C444.754 217.417 448.35 216.384 451.65 216.369C454.967 216.353 457.995 217.364 460.828 219.1C466.499 222.576 471.371 228.948 476.167 235.767C476.92 236.838 477.672 237.92 478.424 239.003C482.454 244.806 486.508 250.644 491.009 255.015C495.64 259.513 500.762 262.476 506.838 262.252Z" fill="#2F1400"/>
<path d="M386.707 204.042C386.707 224.976 398.515 241.946 413.08 241.946C427.646 241.946 439.454 224.976 439.454 204.042C439.454 183.109 427.646 166.139 413.08 166.139C398.515 166.139 386.707 183.109 386.707 204.042Z" fill="white"/>
<path d="M440.384 219.683C408.212 200.598 400.556 267.23 371.333 261.549C414.373 270.6 444.621 276.696 440.384 219.683Z" fill="#552983"/>
<path fill-rule="evenodd" clip-rule="evenodd" d="M429.379 216.104C432.753 216.119 436.414 217.175 440.451 219.57L440.511 219.605L440.516 219.674C441.576 233.936 440.481 244.268 437.558 251.6C434.632 258.938 429.875 263.267 423.632 265.515C417.398 267.761 409.69 267.93 400.861 266.976C392.032 266.021 382.064 263.942 371.306 261.68L371.358 261.42C378.605 262.828 384.521 259.76 389.835 254.626C394.316 250.296 398.352 244.514 402.383 238.74C403.136 237.661 403.889 236.582 404.644 235.514C409.437 228.735 414.337 222.35 420.062 218.86C422.929 217.112 426.005 216.088 429.379 216.104ZM374.198 262.016C383.875 264.042 392.856 265.844 400.89 266.712C409.705 267.665 417.365 267.491 423.542 265.266C429.712 263.044 434.413 258.772 437.311 251.501C440.208 244.236 441.307 233.972 440.257 219.763C436.274 217.411 432.678 216.384 429.378 216.369C426.061 216.353 423.033 217.359 420.2 219.086C414.529 222.544 409.657 228.883 404.861 235.667C404.108 236.732 403.356 237.809 402.604 238.886C398.574 244.659 394.52 250.467 390.019 254.816C385.389 259.289 380.27 262.236 374.198 262.016Z" fill="#2F1400"/>
<path d="M461.719 209.875C461.719 218.219 468.483 224.984 476.828 224.984C485.172 224.984 491.936 218.219 491.936 209.875C491.936 201.531 485.172 194.767 476.828 194.767C468.483 194.767 461.719 201.531 461.719 209.875Z" fill="#7FF2B6"/>
<path d="M476.827 213.587C476.827 216.661 479.319 219.153 482.394 219.153C485.468 219.153 487.96 216.661 487.96 213.587C487.96 210.513 485.468 208.021 482.394 208.021C479.319 208.021 476.827 210.513 476.827 213.587Z" fill="#121212"/>
<path d="M487.165 215.115C487.165 216.067 486.394 216.838 485.442 216.838C484.491 216.838 483.719 216.067 483.719 215.115C483.719 214.164 484.491 213.393 485.442 213.393C486.394 213.393 487.165 214.164 487.165 215.115Z" fill="white"/>
<path d="M415.6 179.456C409.16 174.151 399.638 175.07 394.333 181.51C389.027 187.95 389.946 197.472 396.386 202.778C402.826 208.084 412.348 207.164 417.654 200.724C422.96 194.284 422.04 184.762 415.6 179.456Z" fill="#7FF2B6"/>
<path d="M403.129 188.757C400.757 186.802 397.248 187.141 395.294 189.514C393.339 191.886 393.678 195.395 396.05 197.349C398.423 199.304 401.931 198.965 403.886 196.593C405.841 194.22 405.502 190.712 403.129 188.757Z" fill="#121212"/>
<path d="M395.376 195.764C394.642 195.159 394.537 194.073 395.142 193.339C395.747 192.604 396.833 192.5 397.567 193.105C398.302 193.71 398.406 194.796 397.801 195.53C397.196 196.264 396.111 196.369 395.376 195.764Z" fill="white"/>
<path d="M261.98 442.393C165.089 318.583 81.0596 299.411 -61.6195 377.264C-75.02 384.576 -66.6277 404.818 -51.565 402.338C54.0694 384.944 134.673 400.178 244.406 461.519C257.144 468.64 270.974 453.886 261.98 442.393Z" fill="#121212"/>
<path d="M392.536 146.606C430.794 137.436 456.378 137.94 493.033 148.854C494.556 149.308 494.102 151.457 492.521 151.295C454.634 147.416 429.106 146.577 392.959 149.1C391.35 149.212 390.967 146.982 392.536 146.606Z" fill="#2F1400"/>
<path fill-rule="evenodd" clip-rule="evenodd" d="M392.567 146.735C430.803 137.571 456.364 138.075 492.995 148.982C493.684 149.187 493.919 149.766 493.811 150.279C493.703 150.792 493.251 151.237 492.535 151.164C454.642 147.284 429.106 146.445 392.95 148.968C392.221 149.019 391.777 148.545 391.687 148.014C391.596 147.484 391.858 146.905 392.567 146.735ZM493.071 148.728C456.393 137.807 430.785 137.302 392.505 146.477C391.645 146.683 391.314 147.408 391.425 148.059C391.536 148.709 392.089 149.294 392.969 149.233C429.106 146.71 454.627 147.549 492.508 151.428C493.371 151.516 493.937 150.967 494.071 150.333C494.204 149.699 493.904 148.976 493.071 148.728Z" fill="#2F1400"/>
<path d="M389.488 136.615C430.366 123.645 456.589 124.257 495.623 139.535C497.066 140.099 496.501 142.179 494.966 141.974C454.688 136.61 428.528 135.499 390.024 139.118C388.455 139.265 387.986 137.092 389.488 136.615Z" fill="#2F1400"/>
<path fill-rule="evenodd" clip-rule="evenodd" d="M443.243 127.613C459.768 128.054 476.067 132.021 495.575 139.657C496.226 139.912 496.42 140.5 496.283 141.007C496.146 141.515 495.678 141.934 494.983 141.842C454.698 136.476 428.528 135.365 390.012 138.985C389.302 139.051 388.847 138.599 388.734 138.071C388.62 137.545 388.85 136.955 389.528 136.74C409.959 130.258 426.719 127.172 443.243 127.613ZM443.251 127.348C426.686 126.906 409.895 130 389.448 136.487C388.623 136.749 388.336 137.485 388.475 138.127C388.612 138.769 389.177 139.329 390.037 139.249C428.529 135.631 454.678 136.741 494.948 142.104C495.789 142.216 496.371 141.698 496.539 141.076C496.707 140.454 496.462 139.72 495.671 139.41C476.145 131.768 459.815 127.79 443.251 127.348Z" fill="#2F1400"/>
<path d="M389.488 141.916C430.366 128.946 456.589 129.557 495.623 144.836C497.066 145.4 496.501 147.48 494.966 147.275C454.688 141.911 428.528 140.8 390.024 144.419C388.455 144.566 387.986 142.392 389.488 141.916Z" fill="#2F1400"/>
<path fill-rule="evenodd" clip-rule="evenodd" d="M443.243 132.915C459.768 133.356 476.067 137.323 495.575 144.959C496.226 145.214 496.42 145.802 496.283 146.309C496.146 146.817 495.678 147.236 494.983 147.143C454.698 141.778 428.528 140.667 390.012 144.286C389.302 144.353 388.847 143.901 388.734 143.373C388.62 142.846 388.85 142.257 389.528 142.042C409.959 135.559 426.719 132.474 443.243 132.915ZM443.251 132.65C426.686 132.208 409.895 135.302 389.448 141.789C388.623 142.051 388.336 142.786 388.475 143.429C388.612 144.071 389.177 144.631 390.037 144.55C428.529 140.933 454.678 142.043 494.948 147.406C495.789 147.518 496.371 147 496.539 146.378C496.707 145.755 496.462 145.022 495.671 144.712C476.145 137.069 459.815 133.092 443.251 132.65Z" fill="#2F1400"/>
<path d="M183.586 263.436C148.583 263.436 120.208 235.061 120.208 200.058C120.208 165.055 148.583 136.68 183.586 136.68C218.589 136.68 246.964 165.055 246.964 200.058C246.964 235.061 218.589 263.436 183.586 263.436Z" fill="#FBB33D" stroke="#121212" stroke-width="3.91568"/>
<path fill-rule="evenodd" clip-rule="evenodd" d="M143.709 219.523L220.059 219.548L220.061 213.879L143.711 213.853L143.709 219.523Z" fill="#121212"/>
<path d="M111.076 203.335C139.658 145.499 162.226 199.586 187.333 141.063C188.669 137.949 185.796 134.735 182.533 135.65C112.018 155.427 100.571 166.353 102.777 202.066C103.044 206.391 109.156 207.22 111.076 203.335Z" fill="#F9748B"/>
<path d="M124.634 230.821C138.563 162.308 175.946 213.375 186.192 145.412C186.698 142.058 183.095 139.685 180.162 141.391C112.885 180.535 104.388 194.699 116.283 231.612C117.617 235.751 123.767 235.084 124.634 230.821Z" fill="#F9748B"/>
<path d="M255.916 203.335C227.334 145.499 204.766 199.586 179.659 141.063C178.323 137.949 181.196 134.735 184.459 135.65C254.975 155.427 266.421 166.353 264.216 202.066C263.949 206.391 257.836 207.22 255.916 203.335Z" fill="#F9748B"/>
<path d="M242.358 230.821C228.429 162.308 191.046 213.375 180.799 145.412C180.294 142.058 183.897 139.685 186.83 141.391C254.107 180.535 262.604 194.699 250.709 231.612C249.375 235.751 243.225 235.084 242.358 230.821Z" fill="#F9748B"/>
<path d="M196.628 170.979C203.65 179.252 210.203 181.817 223.002 181.513C223.644 181.497 223.747 180.609 223.129 180.432C212.194 177.301 205.833 174.67 197.31 170.155C196.768 169.868 196.231 170.511 196.628 170.979Z" fill="#121212"/>
<path fill-rule="evenodd" clip-rule="evenodd" d="M196.544 170.224C196.366 170.439 196.325 170.768 196.557 171.041C200.074 175.185 203.48 177.906 207.614 179.551C211.747 181.195 216.599 181.76 223.004 181.608C223.378 181.599 223.599 181.332 223.632 181.045C223.666 180.758 223.514 180.444 223.155 180.342C212.226 177.213 205.872 174.585 197.355 170.073C197.04 169.906 196.723 170.01 196.544 170.224ZM196.69 170.345C196.816 170.193 197.038 170.119 197.266 170.24C205.795 174.758 212.162 177.391 223.103 180.523C223.363 180.598 223.468 180.817 223.444 181.023C223.421 181.228 223.268 181.413 223 181.419C216.606 181.571 211.783 181.006 207.684 179.376C203.587 177.746 200.205 175.047 196.701 170.918C196.535 170.723 196.564 170.497 196.69 170.345Z" fill="#121212"/>
<path d="M142.579 179.434C149.6 171.16 156.153 168.595 168.952 168.9C169.595 168.915 169.697 169.803 169.079 169.98C158.144 173.111 151.784 175.742 143.26 180.257C142.718 180.544 142.181 179.902 142.579 179.434Z" fill="#121212"/>
<path fill-rule="evenodd" clip-rule="evenodd" d="M142.494 180.188C142.316 179.973 142.275 179.644 142.506 179.372C146.024 175.227 149.429 172.506 153.564 170.861C157.696 169.217 162.549 168.652 168.954 168.804C169.328 168.813 169.548 169.08 169.582 169.368C169.615 169.654 169.464 169.968 169.105 170.07C158.176 173.2 151.822 175.827 143.304 180.339C142.99 180.506 142.672 180.402 142.494 180.188ZM142.64 180.067C142.766 180.219 142.988 180.293 143.216 180.172C151.745 175.654 158.111 173.021 169.053 169.889C169.312 169.814 169.418 169.595 169.394 169.389C169.37 169.184 169.218 169 168.95 168.993C162.556 168.841 157.732 169.406 153.634 171.037C149.536 172.667 146.155 175.365 142.65 179.494C142.485 179.689 142.513 179.916 142.64 180.067Z" fill="#121212"/>
<path d="M201.35 193.348C201.35 198.514 205.539 202.703 210.705 202.703C215.872 202.703 220.06 198.514 220.06 193.348C220.06 188.181 215.872 183.993 210.705 183.993C205.539 183.993 201.35 188.181 201.35 193.348Z" fill="#121212"/>
<path d="M147.301 193.348C147.301 198.514 151.489 202.703 156.655 202.703C161.822 202.703 166.01 198.514 166.01 193.348C166.01 188.181 161.822 183.993 156.655 183.993C151.489 183.993 147.301 188.181 147.301 193.348Z" fill="#121212"/>
<path d="M306.441 201.803C263.882 201.803 229.381 167.302 229.381 124.742C229.381 82.183 263.882 47.6818 306.441 47.6818C349.001 47.6818 383.502 82.183 383.502 124.742C383.502 167.302 349.001 201.803 306.441 201.803Z" fill="#FBB33D" stroke="#121212" stroke-width="3.91568"/>
<path d="M312.681 121.969C312.681 134.604 322.923 144.847 335.558 144.847C348.193 144.847 358.436 134.604 358.436 121.969C358.436 109.334 348.193 99.0918 335.558 99.0918C322.923 99.0918 312.681 109.334 312.681 121.969Z" fill="white"/>
<path d="M322.617 121.969C322.617 129.116 328.411 134.91 335.558 134.91C342.705 134.91 348.499 129.116 348.499 121.969C348.499 114.822 342.705 109.028 335.558 109.028C328.411 109.028 322.617 114.822 322.617 121.969Z" fill="#F9748B"/>
<path d="M330.012 121.97C330.012 125.033 332.495 127.516 335.558 127.516C338.621 127.516 341.104 125.033 341.104 121.97C341.104 118.907 338.621 116.424 335.558 116.424C332.495 116.424 330.012 118.907 330.012 121.97Z" fill="#121212"/>
<path d="M251.443 121.969C251.443 134.604 261.686 144.847 274.321 144.847C286.955 144.847 297.198 134.604 297.198 121.969C297.198 109.334 286.955 99.0918 274.321 99.0918C261.686 99.0918 251.443 109.334 251.443 121.969Z" fill="white"/>
<path d="M261.38 121.969C261.38 129.116 267.174 134.91 274.321 134.91C281.468 134.91 287.262 129.116 287.262 121.969C287.262 114.822 281.468 109.028 274.321 109.028C267.174 109.028 261.38 114.822 261.38 121.969Z" fill="#F9748B"/>
<path d="M268.775 121.97C268.775 125.033 271.258 127.516 274.321 127.516C277.384 127.516 279.867 125.033 279.867 121.97C279.867 118.907 277.384 116.424 274.321 116.424C271.258 116.424 268.775 118.907 268.775 121.97Z" fill="#121212"/>
<path fill-rule="evenodd" clip-rule="evenodd" d="M306.328 149.017C322.062 148.736 338.121 154.535 344.578 168.145L340.403 170.126C335.075 158.895 321.323 153.371 306.41 153.638C291.529 153.905 276.654 159.949 269.656 170.42L265.813 167.852C273.951 155.676 290.561 149.3 306.328 149.017Z" fill="#121212"/>
<path d="M376.229 97.4751C376.229 12.8835 236.538 15.697 236.538 97.4751C300.263 62.4058 317.969 62.1458 376.229 97.4751Z" fill="#5B4AA8"/>
<path d="M407.426 84.1872C407.426 74.5515 399.615 66.7402 389.979 66.7402C380.343 66.7402 372.532 74.5515 372.532 84.1872V110.993C372.532 120.629 380.343 128.44 389.979 128.44C399.615 128.44 407.426 120.629 407.426 110.993V84.1872Z" fill="#5B4AA8"/>
<path d="M240.119 87.4225C240.119 77.7869 232.308 69.9756 222.672 69.9756C213.037 69.9756 205.225 77.7869 205.225 87.4225V114.228C205.225 123.864 213.037 131.675 222.672 131.675C232.308 131.675 240.119 123.864 240.119 114.228V87.4225Z" fill="#5B4AA8"/>
<path d="M287.872 99.1984C277.902 86.4581 269.255 84.4853 254.573 92.4964C253.194 93.2488 254.058 95.3319 255.608 95.0766C266.478 93.2868 274.772 94.8544 286.064 101.166C287.375 101.899 288.798 100.381 287.872 99.1984Z" fill="#121212"/>
<path d="M325.124 99.1984C335.095 86.4581 343.741 84.4853 358.423 92.4964C359.802 93.2488 358.939 95.3319 357.389 95.0766C346.519 93.2868 338.224 94.8544 326.933 101.166C325.622 101.899 324.199 100.381 325.124 99.1984Z" fill="#121212"/>
<path d="M661.749 314.55C617.318 314.55 581.286 278.645 581.286 234.338C581.286 190.031 617.318 154.126 661.749 154.126C706.181 154.126 742.213 190.031 742.213 234.338C742.213 278.645 706.181 314.55 661.749 314.55Z" fill="#FBB33D" stroke="#121212" stroke-width="4.75934"/>
<path d="M603.848 245.114C603.848 258.208 614.497 268.823 627.633 268.823C640.769 268.823 651.418 258.208 651.418 245.114C651.418 232.02 640.769 221.405 627.633 221.405C614.497 221.405 603.848 232.02 603.848 245.114Z" fill="white"/>
<path d="M614.178 245.114C614.178 252.521 620.202 258.525 627.633 258.525C635.063 258.525 641.087 252.521 641.087 245.114C641.087 237.707 635.063 231.703 627.633 231.703C620.202 231.703 614.178 237.707 614.178 245.114Z" fill="#7FF2B6"/>
<path d="M621.867 245.114C621.867 248.288 624.448 250.861 627.633 250.861C630.818 250.861 633.399 248.288 633.399 245.114C633.399 241.939 630.818 239.366 627.633 239.366C624.448 239.366 621.867 241.939 621.867 245.114Z" fill="#121212"/>
<path d="M672.321 245.352C672.321 258.446 682.97 269.061 696.106 269.061C709.242 269.061 719.892 258.446 719.892 245.352C719.892 232.258 709.242 221.644 696.106 221.644C682.97 221.644 672.321 232.258 672.321 245.352Z" fill="white"/>
<path d="M682.652 245.352C682.652 252.759 688.676 258.764 696.107 258.764C703.537 258.764 709.561 252.759 709.561 245.352C709.561 237.946 703.537 231.941 696.107 231.941C688.676 231.941 682.652 237.946 682.652 245.352Z" fill="#7FF2B6"/>
<path d="M690.34 245.352C690.34 248.526 692.922 251.1 696.106 251.1C699.291 251.1 701.873 248.526 701.873 245.352C701.873 242.178 699.291 239.604 696.106 239.604C692.922 239.604 690.34 242.178 690.34 245.352Z" fill="#121212"/>
<path d="M630.997 291.933C630.997 301.389 644.819 309.056 661.87 309.056C678.92 309.056 692.743 301.389 692.743 291.933C692.743 282.476 678.92 274.81 661.87 274.81C644.819 274.81 630.997 282.476 630.997 291.933Z" fill="#121212"/>
<path d="M603.175 207.753C595.452 207.753 589.027 201.421 590.914 193.956C593.881 182.213 600.603 171.348 610.443 162.709C624.05 150.762 642.506 144.051 661.749 144.051C680.993 144.051 699.448 150.762 713.055 162.709C722.895 171.348 729.617 182.213 732.585 193.956C734.471 201.421 728.046 207.753 720.323 207.753C712.6 207.753 706.563 201.282 703.575 194.183C701.365 188.932 697.876 184.106 693.28 180.071C684.917 172.729 673.575 168.605 661.749 168.605C649.923 168.605 638.581 172.729 630.219 180.071C625.623 184.106 622.134 188.932 619.923 194.183C616.935 201.282 610.898 207.753 603.175 207.753Z" fill="#5B4AA8"/>
<path d="M694.781 164.777C692.806 157.431 685.231 153.071 677.862 155.04C670.492 157.008 666.118 164.559 668.093 171.905L677.856 208.222C679.83 215.568 687.406 219.928 694.775 217.96C702.145 215.991 706.519 208.44 704.544 201.094L694.781 164.777Z" fill="#552983"/>
<path d="M655.771 171.905C657.746 164.559 653.372 157.008 646.003 155.04C638.633 153.071 631.058 157.431 629.083 164.777L619.32 201.094C617.346 208.44 621.719 215.991 629.089 217.959C636.459 219.928 644.034 215.568 646.008 208.222L655.771 171.905Z" fill="#552983"/>
<path d="M639.886 144.052C639.886 156.088 649.675 165.845 661.75 165.845C673.824 165.845 683.613 156.088 683.613 144.052C683.613 132.016 673.824 122.259 661.75 122.259C649.675 122.259 639.886 132.016 639.886 144.052Z" fill="#552983"/>
<path d="M675.684 172.43C675.684 164.825 669.499 158.66 661.87 158.66C654.24 158.66 648.055 164.825 648.055 172.43V210.029C648.055 217.634 654.24 223.8 661.87 223.8C669.499 223.8 675.684 217.634 675.684 210.029V172.43Z" fill="#5B4AA8"/>
<path d="M727.58 238.289C727.58 231.769 728.886 225.501 731.226 220.796C733.566 216.091 736.757 213.314 740.134 213.045C743.51 212.776 746.809 215.036 749.342 219.352C751.875 223.668 753.445 229.707 753.723 236.205C754.002 242.703 752.968 249.157 750.838 254.218C748.707 259.279 745.645 262.555 742.292 263.361C738.939 264.166 735.554 262.439 732.845 258.541C730.136 254.642 728.314 248.874 727.758 242.443L731.057 241.382C731.471 246.17 732.828 250.465 734.845 253.368C736.862 256.27 739.382 257.556 741.879 256.956C744.375 256.357 746.655 253.918 748.241 250.149C749.828 246.381 750.598 241.575 750.39 236.737C750.183 231.899 749.014 227.403 747.128 224.189C745.242 220.976 742.785 219.293 740.272 219.493C737.758 219.694 735.381 221.762 733.639 225.265C731.897 228.768 730.925 233.434 730.925 238.289H727.58Z" fill="#FBB33D"/>
<path d="M595.919 238.289C595.919 231.769 594.613 225.501 592.273 220.796C589.934 216.091 586.742 213.314 583.366 213.045C579.989 212.776 576.69 215.036 574.157 219.352C571.624 223.668 570.055 229.707 569.776 236.205C569.497 242.703 570.531 249.157 572.662 254.218C574.792 259.279 577.854 262.555 581.207 263.361C584.561 264.166 587.946 262.439 590.654 258.541C593.363 254.642 595.186 248.874 595.741 242.443L592.442 241.382C592.028 246.17 590.671 250.465 588.654 253.368C586.638 256.27 584.117 257.556 581.621 256.956C579.124 256.357 576.844 253.918 575.258 250.149C573.672 246.381 572.902 241.575 573.109 236.737C573.317 231.899 574.486 227.403 576.371 224.189C578.257 220.976 580.714 219.293 583.228 219.493C585.741 219.694 588.118 221.762 589.86 225.265C591.602 228.768 592.574 233.434 592.574 238.289H595.919Z" fill="#FBB33D"/>
<g clip-path="url(#clip0_6_2257)">
<path d="M66.8755 214.558C38.3946 214.558 15.3062 191.469 15.3062 162.988C15.3062 134.508 38.3946 111.419 66.8755 111.419C95.3565 111.419 118.445 134.508 118.445 162.988C118.445 191.469 95.3565 214.558 66.8755 214.558Z" fill="#FBB33D" stroke="#121212" stroke-width="3.91568"/>
<path d="M110.874 149.64C116.166 154.913 115.091 164.572 108.472 171.214C101.854 177.857 92.1985 178.967 86.9066 173.694C81.6147 168.421 82.69 158.762 89.3084 152.12C95.9269 145.477 105.582 144.367 110.874 149.64Z" fill="#AD00FF"/>
<path d="M108.854 151.082C81.3746 157.637 72.628 163.899 69.5469 179.933C95.2591 193.555 102.993 185.141 108.854 151.082Z" fill="white"/>
<path fill-rule="evenodd" clip-rule="evenodd" d="M108.949 150.983L108.837 151.01C95.0961 154.288 86.0262 157.495 80.006 161.894C73.9799 166.297 71.015 171.89 69.4718 179.921L69.4612 179.977L69.511 180.003C75.942 183.41 81.2558 185.443 85.7015 186.04C90.1502 186.637 93.7325 185.795 96.6919 183.45C99.6481 181.109 101.974 177.274 103.927 171.903C105.881 166.531 107.464 159.614 108.93 151.097L108.949 150.983ZM108.759 151.186C107.3 159.647 105.724 166.516 103.784 171.851C101.835 177.211 99.5211 181.015 96.5971 183.331C93.6763 185.645 90.1379 186.481 85.7218 185.888C81.3141 185.297 76.0351 183.283 69.6324 179.894C71.1733 171.921 74.1225 166.382 80.0961 162.017C86.0731 157.649 95.0834 154.453 108.759 151.186Z" fill="white"/>
<path d="M83.0564 171.998C83.0564 176.719 86.8837 180.546 91.6049 180.546C96.3261 180.546 100.153 176.719 100.153 171.998C100.153 167.276 96.3261 163.449 91.6049 163.449C86.8837 163.449 83.0564 167.276 83.0564 171.998Z" fill="#8D4400"/>
<path d="M91.6049 170.47C91.6049 172.494 93.2451 174.134 95.2685 174.134C97.2919 174.134 98.9321 172.494 98.9321 170.47C98.9321 168.447 97.2919 166.807 95.2685 166.807C93.2451 166.807 91.6049 168.447 91.6049 170.47Z" fill="#121212"/>
<path d="M22.7932 149.64C17.5013 154.913 18.5766 164.572 25.1951 171.214C31.8135 177.857 41.4687 178.967 46.7607 173.694C52.0526 168.421 50.9772 158.762 44.3588 152.12C37.7404 145.477 28.0851 144.367 22.7932 149.64Z" fill="#AD00FF"/>
<path d="M24.9729 151.082C52.4528 157.637 61.1994 163.899 64.2805 179.933C38.5683 193.555 30.8346 185.141 24.9729 151.082Z" fill="white"/>
<path fill-rule="evenodd" clip-rule="evenodd" d="M24.8779 150.983L24.9905 151.01C38.7311 154.288 47.801 157.495 53.8211 161.894C59.8473 166.297 62.8121 171.89 64.3553 179.921L64.366 179.977L64.3161 180.003C57.8851 183.41 52.5713 185.443 48.1257 186.04C43.677 186.637 40.0946 185.795 37.1353 183.45C34.1791 181.109 31.8531 177.274 29.9 171.903C27.9466 166.531 26.3632 159.614 24.8976 151.097L24.8779 150.983ZM25.0676 151.186C26.5273 159.647 28.1034 166.516 30.0434 171.851C31.9925 177.211 34.306 181.015 37.23 183.331C40.1508 185.645 43.6893 186.481 48.1054 185.888C52.5131 185.297 57.7921 183.283 64.1947 179.894C62.6539 171.921 59.7046 166.382 53.7311 162.017C47.7541 157.649 38.7438 154.453 25.0676 151.186Z" fill="white"/>
<path d="M41.0777 172.76C41.0777 177.482 44.9049 181.309 49.6261 181.309C54.3473 181.309 58.1746 177.482 58.1746 172.76C58.1746 168.039 54.3473 164.212 49.6261 164.212C44.9049 164.212 41.0777 168.039 41.0777 172.76Z" fill="#8D4400"/>
<path d="M49.6259 171.233C49.6259 173.256 51.2661 174.897 53.2895 174.897C55.3129 174.897 56.9531 173.256 56.9531 171.233C56.9531 169.21 55.3129 167.569 53.2895 167.569C51.2661 167.569 49.6259 169.21 49.6259 171.233Z" fill="#121212"/>
<path d="M98.9321 197.688C76.3782 183.939 69.2026 184.045 65.8005 197.688H98.9321Z" fill="#F9748B"/>
<path d="M34.8188 197.685C57.3727 183.936 64.5483 184.042 67.9504 197.685H34.8188Z" fill="#F9748B"/>
<path d="M92.0963 197.688C71.7934 210.75 60.7459 210.552 41.5995 197.688H92.0963Z" fill="#F9748B"/>
<path d="M18.1866 154.235C14.7529 146.475 13.2857 137.989 13.9151 129.528C14.5444 121.066 17.2509 112.89 21.7947 105.724C26.3386 98.5584 32.3947 99.6948 39.78 95.517C47.1652 91.3393 55.4668 89.0474 63.9494 88.8443C72.432 88.6413 80.8337 90.5333 88.4104 94.3529C95.9871 98.1725 102.69 96.7307 107.571 103.671C112.453 110.611 115.547 118.648 116.581 127.07C117.614 135.492 116.555 144.038 113.496 151.953L65.3689 133.355L18.1866 154.235Z" fill="#5B4AA8"/>
</g>
<defs>
<clipPath id="clip0_6_2257">
<rect width="127.616" height="141.813" fill="white" transform="matrix(-1 0 0 1 127.325 70.7881)"/>
</clipPath>
</defs>
</svg>
